<?xml version="1.0" encoding="utf-8"?><!DOCTYPE svg PUBLIC "-//W3C//DTD SVG 1.1//EN" "http://www.w3.org/Graphics/SVG/1.1/DTD/svg11.dtd"><svg version="1.1" xmlns="http://www.w3.org/2000/svg" xmlns:xlink="http://www.w3.org/1999/xlink" x="0px" y="0px" viewBox="0 0 99.996 100" enable-background="new 0 0 99.996 100" xml:space="preserve"><g><path fill="#010101" d="M93.917,71.206c-2.307,4.759-5.361,9.09-9.019,12.835l-6.358-6.357c3.116-3.211,5.627-6.854,7.479-10.792
		h-0.001c2.37-5.044,3.657-10.572,3.743-16.298h9.015C98.684,57.972,96.946,64.958,93.917,71.206l1.09,0.593
		c3.259-6.713,4.989-14.126,4.989-21.808c0-6.533-1.253-12.87-3.631-18.75c-2.48-6.14-6.19-11.779-11.014-16.604
		c-4.843-4.842-10.507-8.56-16.674-11.042l-0.002,0.005C62.816,1.242,56.503,0,49.998,0C41.96,0,34.365,1.917,27.63,5.302
		l0.55,1.052c6.517-3.266,13.728-5.045,21.216-5.135v9.017c-6.107,0.091-11.878,1.573-17.025,4.128l0.547,1.049
		c5.071-2.51,10.668-3.885,16.478-3.974v8.164c-4.542,0.09-8.839,1.182-12.685,3.059l0.263,0.502l-0.263-0.503
		c-2.87,1.401-5.491,3.237-7.77,5.428l-5.783-5.782c2.918-2.832,6.212-5.139,9.759-6.894l-0.547-1.049
		c-3.713,1.844-7.104,4.245-10.051,7.104l-6.388-6.387c3.662-3.575,7.794-6.495,12.248-8.727l-0.55-1.052
		C17.895,10.194,9.97,18.166,5.144,27.939l0.565,0.305l-0.565-0.305C1.856,34.597,0,42.083,0,49.996
		c0,4.841,0.691,9.571,2.012,14.092l1.181-0.297c-1.242-4.235-1.919-8.663-1.974-13.192h9.015c0.055,3.777,0.638,7.468,1.705,10.989
		l1.169-0.294c-1.045-3.428-1.614-7.019-1.67-10.695h8.164c0.023,1.202,0.136,2.388,0.297,3.562
		c-0.573,0.063-1.116,0.249-1.116,0.249l-0.243,0.834c-0.554,0.102-0.902,1.007-0.902,1.007c-0.454,0.153-0.811,0.714-0.66,0.868
		c0.151,0.153-0.278,0.208-0.278,0.208v1.146l-0.243,0.348l0.069,1.215c0.303,0,0.243,0.59,0.243,0.59
		c-0.504,0.052-0.417,0.695-0.417,0.695l-1.042,0.382l-0.208,0.277l-1.319-0.034l-0.339,0.338c-0.11-0.328-0.231-0.654-0.333-0.987
		l-1.169,0.295c0.036,0.12,0.081,0.235,0.119,0.354h-1.506l-0.104-0.243l-0.486-0.104l-0.069-0.59l-0.764,0.069l-0.139,0.312
		l-0.799,0.034c0.051,0.513-0.803,1.28-0.902,1.076c-0.102-0.205-0.669-0.766-0.417-0.867c0.252-0.104,0.903-0.209,0.903-0.209
		v-0.347l-1.84-0.069l-0.208,0.312l-0.764,0.069v0.798l-0.347,0.104c-0.252,0.153,0.035,0.729,0.035,0.729
		c0.354,0.357-0.035,0.902-0.035,0.902c-0.303,0.308,0.243,0.903,0.243,0.903c0.404,0.102-0.243,0.382-0.243,0.382
		C4.718,65.72,5,65.867,5,65.867c-0.304,0.513,0.208,0.799,0.208,0.799l0.069,0.868l0.347,0.208v0.556l0.208,0.347h0.799
		l-0.07-1.284c-0.706-0.819,0.608-1,0.66-0.694c0.051,0.307,0.625,0.451,0.625,0.451c0.101,0.769,0.964,1.219,1.215,0.451
		c0.252-0.768,0.439-0.288,0.59,0.069c0.151,0.358,1.111,1.216,1.111,1.216h0.764l0.104,0.729c0.857-0.052,1.105,0.039,1.458,1.216
		c0.354,1.176,1.319,1.493,1.319,1.493l0.694-0.07c0-0.612,0.694,0.11,0.694,0.417c0,0.306,1.354,1.493,1.354,1.493l1.389,0.312
		l0.286,0.229c0.826,1.04,1.694,2.052,2.63,3.017l-6.375,6.376C9.441,78.284,5.411,71.347,3.196,63.793L2.015,64.09
		c2.324,7.952,6.611,15.241,12.632,21.262c4.078,4.078,8.739,7.361,13.792,9.781l0.598-1.062c-4.782-2.278-9.206-5.351-13.103-9.155
		l6.375-6.374c3.312,3.216,7.09,5.779,11.175,7.647l0.595-1.055c-3.992-1.812-7.684-4.31-10.918-7.444l1.18-1.179
		c0.062,0.113,0.114,0.252,0.138,0.432c0.1,0.768,0.451,0.625,0.451,0.625l2.882-0.069l1.007-0.868l2.569-0.035
		c1.312-0.051,0.495-1.875,0.243-1.875c-0.151-0.118-0.176-0.363-0.151-0.635c2.054,1.585,4.274,2.902,6.63,3.904l0.595-1.054
		c-2.825-1.186-5.448-2.846-7.81-4.897l-1.079-0.997l6.347-6.347c2.048,1.932,4.433,3.388,7.018,4.314
		c0.706,0.253,1.43,0.451,2.163,0.624c-0.129,0.114-0.201,0.221-0.171,0.296c0.101,0.256-0.417,0.521-0.417,0.521l-0.452,0.139
		l-0.312,0.452l-0.59,0.208l-0.104,1.076l-0.312,0.208v0.452l-0.347,0.104v0.278l-0.521,0.034l0.312,0.764l0.417,0.209
		c0.706,0.102,0.382,0.972,0.382,0.972l0.417,0.069l0.208,0.556l0.382,0.799c0.152,0.615,0.631,0.468,0.833,0.417
		c0.202-0.05,0.382,0.625,0.382,0.625l2.014,0.034c0,0-0.075,0.211,0.278,0.312c0.195,0.057,0.978,0.117,1.66,0.136v0.899
		c-3.73-0.073-7.345-0.847-10.694-2.252l-0.595,1.055c3.532,1.5,7.347,2.326,11.289,2.401v8.164
		c-5.372-0.082-10.56-1.263-15.319-3.422l-0.595,1.055c4.94,2.258,10.332,3.489,15.914,3.572v9.015
		c-7.161-0.086-14.071-1.709-20.36-4.706l-0.599,1.062C35.088,98.318,42.416,100,50.003,100c7.958,0,15.627-1.86,22.528-5.352
		l-0.569-1.104c-6.436,3.26-13.681,5.143-21.356,5.237v-9.015c3.675-0.054,7.264-0.616,10.698-1.632l0.881,0.267l0.278,0.833
		l0.382-0.069l0.312-0.243l1.215-0.069l0.591-0.556l0.659-0.104l4.713-4.009c2.634-1.57,5.105-3.449,7.359-5.637l6.358,6.358
		c-3.547,3.462-7.626,6.378-12.09,8.639l0.57,1.104c4.677-2.367,9.009-5.478,12.823-9.292c4.012-4.011,7.248-8.588,9.654-13.546
		L95.006,71.8L93.917,71.206z M76.691,61.799c-1.377,3.1-3.273,5.917-5.587,8.34c-0.101-1.023-0.344-2.153-0.344-2.153l-0.382-0.208
		l0.104-1.216h-0.556l-0.903,1.181l-0.109,0.315l-0.521-0.521l0.249-0.281l-0.034-0.59l0.347-0.312v-0.521l0.312-0.104l0.035-1.111
		l0.277-0.069v-2.465l-0.764-0.694c-0.05,0.256-0.868,0.243-0.868,0.243s-0.195,0.347-0.347,0.347s0.206,0.49,0.104,0.799
		c-0.1,0.306-0.521,0.277-0.521,0.277l-0.764,0.209l-0.174,0.277h-0.833l-0.052-0.494c0.065-0.078,0.135-0.153,0.2-0.232
		l0.685-0.211l0.486-0.243l0.243-0.521c0.05-0.511,0.659-0.451,0.659-0.451s1.166-0.964,1.216-1.424
		c0.052-0.461,0.475-1.771,1.181-1.771h1.284c0.504-0.205,0.382-0.868,0.382-0.868l0.625-0.104l0.104,0.382
		c0,0,0.907,0.085,1.007-0.069c0.102-0.152,0.303-0.501,0.556-0.347c0.251,0.153,1.076-0.348,1.076-0.348
		c0.05-0.358,1.319-0.208,1.319-0.208l0.139-0.486c0,0-0.854-1.146-1.007-1.146c-0.151,0-0.975-0.742-1.076-0.486
		c-0.807-0.204-0.729-1.319-0.729-1.319l-0.312-0.729c0-0.41-0.751-1.282-0.902-1.18c-0.314-0.234-0.396-0.479-0.378-0.69h7.068
		C79.106,54.574,78.219,58.359,76.691,61.799L76.691,61.799z M49.095,53.021l0.208-0.243l-0.104-0.347
		c-0.404-0.154-0.218-0.519,0.035-0.417c0.252,0.103-0.347-0.451-0.347-0.451c-0.302,0.256-0.556-0.312-0.556-0.312h-0.764v-0.729
		l-0.104-0.659l-0.729-0.347L46.178,50l-0.104,0.729v0.451l-0.521,0.104l-0.104,1.389l-0.382,0.173l0.035,0.486l-0.556,0.174
		l-0.556,0.139l-0.104,0.66l-0.382,0.277l-0.208,0.591l-0.239,1.471c-0.719-0.751-1.299-1.598-1.735-2.512
		c0.089-0.359,0.099-0.695,0.099-0.695c-0.453-0.204-0.192-0.927,0.312-0.312c0.504,0.613-0.312-1.216-0.312-1.216l-0.417-0.347
		l-0.498-0.066c-0.077-0.492-0.127-0.991-0.127-1.5c0-0.213,0.018-0.424,0.031-0.636c0.146-0.127,0.315-0.055,0.315-0.055
		l0.278,0.243l0.486,0.347l0.035,0.312l-0.312,0.174l-0.035,0.417l0.139,0.556h0.417c0.151-0.819,1.191-0.825,1.493-0.312
		l0.312-0.729c-0.706-0.358,0.006-0.916,0.208-0.66c0.202,0.256,0.66-0.66,0.66-0.66s0.095,0.1,0.139,0.139
		c-0.016-0.043-0.05-0.124-0.139-0.277c-0.354-0.615,0.243-0.938,0.243-0.938c-0.1-0.614,0.66-0.521,0.66-0.521l0.035-0.798
		l-0.695-0.07c-0.15,0.717-0.754,0.119-0.451-0.035c0.303-0.154,0.59-0.486,0.59-0.486v-0.486l0.312-0.104l0.069-0.521H45.9
		l0.66-0.312l0.174-0.243l0.694-0.07l1.007-0.903l-0.104-0.417c-0.605,0,0-0.451,0-0.451l0.104-0.764h-0.556l-0.099-1.089
		c0.687-0.162,1.394-0.255,2.116-0.262l0.101,1.213l-0.556-0.174h-0.347l-0.173-0.312l-0.278-0.035v1.111l0.278,0.243l0.278,0.277
		l0.486,0.035l0.104,0.625l1.25,0.035l0.173,0.277l0.765,0.035l1.458,1.493l-0.104,0.452l-0.243,0.173
		c0.103,0.358-0.659,0.139-0.659,0.139v0.312l0.347,0.035l0.348,0.208l0.521-0.868c0.555-0.358,0.781,0.144,0.833,0.451
		c0.051,0.307-0.242,0.278-0.242,0.278v0.694l0.312,0.104c0.505,0.614-0.209,0.972-0.209,0.972l-0.139,0.521
		c-0.152,0.46-0.729,0.347-0.729,0.347l-0.208,0.312l-0.59,0.174l1.18,0.139c0.114-0.41,0.438-0.518,0.591-0.312
		c0.151,0.205,0.139,0.59,0.139,0.59l0.312,0.035l-0.069,0.555l0.312,0.104v1.632l0.348,0.417c0.604-0.255,0.616,0.143,0.312,0.347
		c-0.301,0.204-0.104,1.146-0.104,1.146l-0.243,0.243v0.417l-0.312,0.208v0.556c-0.505-0.256-1.098-0.154-1.25,0
		c-0.453-0.307-1.424-0.187-1.424,0.069c0.302,0.41-0.347,0.486-0.347,0.486l-0.348,0.417c0.253,0.512-0.243,0.556-0.243,0.556
		v0.972L50.9,58.68l0.046,0.888c-0.312,0.03-0.628,0.048-0.949,0.048c-2.364,0-4.59-0.854-6.347-2.404
		c0.034-0.018,0.067-0.044,0.097-0.093c0.252-0.409,0.66-0.452,0.66-0.452l0.139-0.347l1.354,0.034
		c0.101-0.563,0.764-0.359,0.764-0.104s0.521,0.069,0.521,0.069l0.347-0.556h0.556l0.035-0.625l0.278-0.174v-0.902
		C49.208,53.807,49.095,53.021,49.095,53.021z M29.873,48.733c-0.081,0.157-0.152,0.26-0.152,0.26
		c-0.059,0.089-0.09,0.238-0.108,0.4h-1.915l0.009-0.053l-0.556-0.035c-0.605-0.359-0.312-1.701-0.312-1.701
		c0.958-1.434,2.083-0.625,2.083-0.625l0.694-0.035c0.187,0.126,0.294,0.274,0.372,0.428C29.93,47.821,29.901,48.277,29.873,48.733z
		 M40.623,41.945c-0.202,0.46-0.694-0.069-0.694-0.069c-0.1-0.307-0.833,0-0.833,0c0,0.563-0.938-0.243-0.938-0.243l-1.771-1.285
		c-1.009-0.921-2.52,0.265-2.569,0.521c0.027,0.387-0.318,0.394-0.643,0.32c0.791-1.506,1.789-2.912,2.982-4.181l4.955,4.955
		L40.623,41.945z M38.366,51.354l0.173-0.312l0.092-0.443h0.573c0.02,0.365,0.063,0.726,0.119,1.081l-0.333,0.091l-0.104-0.208
		l-0.139,0.556h-0.903l-0.035-0.625L38.366,51.354z M61.076,22.973c2.451,1.004,4.758,2.354,6.872,4.008
		c0.052,0.357,0.452,0.52,0.452,0.52l0.192,0.017c0.183,0.151,0.357,0.312,0.536,0.468v0.384c0.353-0.089,0.896,0.313,0.994,0.656
		l-6.283,6.284c-1.794-1.69-3.844-3.017-6.059-3.942v0c-2.252-0.941-4.678-1.468-7.18-1.542v-9.015
		C54.25,20.884,57.788,21.626,61.076,22.973L61.076,22.973z M53.886,60.416l0.243,0.104l-0.451,0.347l-0.417,0.452l-0.486-0.14
		L52.15,61.11l-0.173-0.347l-0.383-0.035l-0.034,0.694l-0.243,0.312l-0.625,0.625c0.643,0,0.217,0.349-0.087,0.491v-2.056
		c0.652-0.036,1.291-0.133,1.916-0.281c0.068,0.063,0.115,0.109,0.115,0.109h0.451l0.02-0.269c0.236-0.07,0.47-0.152,0.7-0.238
		C53.818,60.26,53.886,60.416,53.886,60.416z M57.34,32.489c2.064,0.865,3.973,2.1,5.647,3.672l-0.329,0.33
		c-0.171-0.162-0.717-0.269-0.717-0.448c0-0.154-0.262-0.326-0.383-0.278c-0.04,0.016-0.082,0.062-0.069,0.139
		c0.05,0.307-0.349,0.449-0.451,0.347c-0.1-0.103-0.417,0.312-0.417,0.312c0,0.153-0.093,0.365,0.209,0.417
		c0.304,0.05,0.853-0.203,0.902,0.104c0.018,0.104,0.034,0.193,0.057,0.275l-1.967,1.967c-0.276,0.017-0.555-0.02-0.555-0.02
		c-0.151,0.461-0.861-0.04-0.66-0.347c0.202-0.307,0.209-0.521,0.209-0.521l-0.243-0.035l-0.312,0.556
		c-0.706,0-0.916,0.403-0.764,0.66c0.151,0.255-0.176-0.045-0.278,0.312c-0.1,0.358,0.045,0.367,0.348,0.521
		c0.303,0.154-0.167,0.161,0.034,0.417c0.132,0.167,0.428,0.114,0.525,0.153l-0.371,0.371c-0.347,0.116-0.744,0.031-0.744,0.031
		c-0.011,0.105-0.074,0.178-0.158,0.23c-0.812-0.668-1.7-1.213-2.651-1.615c0.156-0.118,0.425-0.1,0.553-0.456
		c0.203-0.563,0.277-1.493,0.277-1.493s-0.208-0.019-0.416,0c-0.209,0.019-0.392,0.081-0.417,0.208
		c-0.05,0.256-0.556,0.417-0.556,0.417s-0.43,0.142-0.277,0.347c0.151,0.205-0.278,0.312-0.278,0.312s0.021,0.138,0.003,0.27
		c-0.804-0.239-1.636-0.39-2.49-0.437v-8.177C52.951,31.104,55.225,31.603,57.34,32.489L57.34,32.489z M62.67,39.792
		c-0.352,0.668-1.121-0.069-1.08-0.541l1.323-1.325c0.08,0.009,0.162,0.026,0.243,0.026c0.302,0,0.972-0.104,0.972-0.104
		s0.277,0.04,0.517,0.105c0.243,0.294,0.479,0.591,0.702,0.896l-0.628-0.099l-0.382-0.035l-0.764-0.069
		C62.817,39.159,62.67,39.792,62.67,39.792z M53.79,58.833c-0.296,0.128-0.6,0.242-0.91,0.34v-1.117l0.486-0.556
		C53.892,57.323,53.818,58.438,53.79,58.833z M61.315,66.716c0.029-0.02,0.062-0.037,0.091-0.058l1.195,0.598
		C62.753,67.46,63.4,67.43,63.4,67.43l0.208,0.243c0,0,0.407-0.065,0.66,0.243c0.251,0.307,1.562,0.069,1.562,0.069l0.347,0.312
		l0.556,0.208l0.941,0.021l0.576,0.577c-0.908,0.423-2.756,0.285-2.872,0.166c-0.151-0.153-1.215-0.625-1.215-0.625
		s-0.785-0.656-0.938-0.451s-0.868-0.258-0.868-0.104c0,0.153-0.659-0.348-0.659-0.348l-1.007-0.382l0.764-0.139L61.315,66.716z
		 M65.9,40.139c0.151,0.769,0.399,1.077-0.104,1.077c-0.506,0-0.625-0.417-0.625-0.417s-0.382-0.135-0.382,0.069
		c0,0.205-0.152,0.594,0,0.798c0.15,0.205-0.23,0.536-0.382,0.382c-0.149-0.153-0.553-0.645-0.451-0.798
		c0.1-0.154-0.703-1.097,0.104-1.25c0.808-0.153-0.025-0.627,0.278-0.729l0.382-0.208h0.416l0.227-0.193
		c0.198,0.272,0.389,0.549,0.571,0.832C65.886,39.829,65.867,39.975,65.9,40.139z M51.109,65.624l1.146-0.243
		c0.1-0.512,0.625,0.104,0.625,0.104c0.505-0.052,0.59,0.277,0.59,0.277l0.66,0.104c0.554,0.154,0.21,0.215,0.243,0.417
		c0.05,0.306,0.312,0.208,0.312,0.208l0.104-0.659l0.312,0.034l-0.312-0.347l-0.555-0.243l-0.591-0.278
		c-0.403-0.562,0.083-0.434,0.486-0.382h0.659c0,0,0.765,0.994,0.765,1.25S55.9,66.18,55.9,66.18l0.451-0.034l0.14,0.347h0.451
		l0.174,0.312h0.902l0.034-0.451l-0.833-0.174l-0.069-0.486l-0.59-0.173c-0.202-0.869,0.13-1.14,0.382-0.729l0.312,0.069
		l-0.104-0.764l0.348-0.104l-0.104-1.076l-0.277-0.104v-0.347l1.249,0.034c-0.1-0.666,0.07-0.972,0.07-0.972h0.347l0.035,0.277
		l1.562,0.14h0.069c0.605,0.357,0.306,0.8,0.104,0.902c-0.201,0.102-0.555,0.104-0.555,0.104l-0.104,0.208l-1.319,0.104
		l-0.104,0.521c-0.655-0.104-0.916,0.614-0.764,0.972c0.151,0.358,0,0.66,0,0.66l0.556,0.277l0.729-0.208
		c0.103-0.512,0.534-0.632,0.938-0.938c0.404-0.307,1.07,0.562,0.868,0.973c-0.023,0.05-0.038,0.083-0.057,0.124
		c-0.773,0.532-1.586,1.009-2.435,1.423c-1.337,0.652-2.767,1.132-4.253,1.457c-0.017-0.011-0.026-0.019-0.026-0.019l-0.556-0.174
		l-0.034-0.764c-0.102-0.512-1.058-0.497-1.007-0.139c0.049,0.349-1.728,0.152-1.823,0.141v-1.407L51.109,65.624z M50.605,77.988
		c0.332-0.245,1.279-0.259,1.719,0.066c0.554,0.408,1.319,0.173,1.319,0.173l0.537,0.665c-1.172,0.17-2.363,0.276-3.575,0.301
		V77.988z M73.085,49.389c0.063-0.088,0.105-0.152,0.105-0.152l0.243-0.694l0.868-0.278l0.104-0.66l-0.451-0.035
		c0,0,0.511-0.938,0.764-0.938s1.899-0.002,2.049-0.104c0.152-0.102,0.451-0.923,0.451-1.076s0.406-0.191,0.556-0.243
		c0.152-0.05,0.524-0.455,0.625-0.66c0.101-0.206-0.25-1.49-0.451-1.285c-0.202,0.205-0.66,0.312-0.66,0.312l-0.173,0.556
		l-0.243,0.208c0,0,0.05,0.162,0,0.521c-0.05,0.358-0.486,0.556-0.486,0.556l-0.208,0.243c0,0-1.209,0.065-1.354,0
		c-0.453-0.205-0.164-0.815,0.139-0.764c0.302,0.052-0.034-0.868-0.034-0.868l0.382-0.035c0,0,0.057-0.937,0.208-0.937
		c0.152,0-0.041-0.298-0.243-0.452c-0.201-0.153-0.458-0.676-0.659-0.625c-0.202,0.051-1.007,0-1.007,0l-0.174,0.312l-0.556,0.104
		c0,0,0.062,0.405-0.035,0.521c-0.304,0.358-1.476,1.105-0.972-0.173l0.174-0.312v-0.452l-0.903-0.035c0,0-0.451-0.177-0.451-0.382
		s-0.069-0.452-0.069-0.452l-1.042-1.18l-1.284-0.139l-0.104-0.277l-0.729-0.104c-0.124-0.062-0.244-0.105-0.363-0.137
		c-0.349-0.557-0.727-1.099-1.132-1.624c-0.013-0.039-0.026-0.086-0.033-0.114c-0.045-0.183-0.613-0.976-0.912-0.993
		c-0.114-0.128-0.215-0.266-0.333-0.391l6.273-6.272c0.211,0.193,0.182,0.27,0.458,0.47c0.094,0.068,0.186,0.104,0.273,0.117
		c0.169,0.187,0.338,0.375,0.501,0.565l-0.115,0.151c0,0.579,0.27,0.414,0.539,0.361c0.086,0.104,0.175,0.208,0.259,0.313
		c0.024,0.34,0.031,0.816,0.557,0.749c0.005,0,0.008,0,0.013,0c0.66,0.888,1.27,1.807,1.821,2.757l0.006,0.021l0.006,0
		c0.087,0.149,0.17,0.3,0.254,0.451c-0.099,0.104-0.155,0.209-0.155,0.209l-0.833,0.104v0.833l-0.383,0.139l0.035,0.521l0.556-0.069
		c0,0,0.021,0.637,0.174,0.382c0.151-0.256,1.387,0.045,1.284,0.66c-0.041,0.252,1.263,0.917,1.111,1.736
		c0.099,0.015,0.175,0.047,0.241,0.083c0.243,0.703,0.463,1.413,0.652,2.135l-0.095,0.178c0,0,0.072,0.042,0.169,0.128
		c0.169,0.674,0.321,1.352,0.441,2.039c-0.049,0.525-0.175,1.01-0.438,1.166c-0.605,0.358,0.035,0.139,0.035,0.139l-0.104,1.146
		c0.152,0.512,0.404,0.256,0.556,0c0.08-0.136,0.166-0.213,0.259-0.292c0.076,0.768,0.133,1.54,0.149,2.32H73.085z M79.996,44.653
		c-0.15-0.153,0.174-0.868,0.174-0.868s0.202-0.424,0-0.833c-0.201-0.41,0.021-0.871,0.174-1.076l-0.382-0.208l-0.417-0.035
		l-0.305,0.047c-0.091-0.319-0.202-0.631-0.303-0.947l0.018-0.038l0.243,0.069v-0.312L78.8,40.328
		c-0.062-0.188-0.125-0.377-0.19-0.564l-0.072-1.117l-0.347-0.243l0.104-0.417l-0.416-0.139l0.208-0.694l-0.347-0.694h-0.514
		c-0.242-0.487-0.496-0.969-0.765-1.444c0.048-0.028,0.107-0.057,0.201-0.083c0.278-0.077,0.386-0.11,0.417-0.104l-0.035-0.521
		l-0.451-0.312l-0.174-0.625c0,0-0.535,0.11-0.485,0.417c0.012,0.073-0.03,0.129-0.104,0.175c-0.352-0.565-0.72-1.121-1.108-1.665
		c0.011-0.024,0.02-0.049,0.032-0.073c0.202-0.358,0.11-0.592-0.243-0.694c-0.354-0.103-0.352-0.076-0.451-0.486
		c-0.1-0.409-0.521-0.521-0.521-0.521l-0.139-0.625l-0.38,0.24c-0.195-0.225-0.398-0.444-0.601-0.664l0.183-0.583
		c-0.204-0.042-0.297-0.167-0.352-0.297l1.573-1.574c0.704,0.414,1.226,1.38,1.139,1.559c-0.101,0.205,0.591,0.139,0.591,0.139
		c0.102-0.922,0.957-0.62,1.007-0.312c0.052,0.307,0.208,0.972,0.208,0.972l0.243,0.486l0.382,0.347l0.556-0.07l0.139,0.312
		l0.66,0.104c0,0,0.54,0.61,0.59,0.764c0.051,0.153,0.805,0.123,1.007,0.174s0.506,0.196,0.556,0.451
		c0.051,0.256,0.382,0.66,0.382,0.66s0.574,0.177,0.625,0.382c0.05,0.205,0.312,0.66,0.312,0.66l0.521,0.417l0.035,0.451
		l0.556,0.035l0.139,0.625l0.938-0.069l0.486-0.347c0.152-0.083,0.293-0.171,0.423-0.261c0.184,0.419,0.368,0.838,0.536,1.263l0,0
		c1.701,4.289,2.633,8.887,2.705,13.629h-8.163c-0.028-1.429-0.183-2.833-0.404-4.221C80.043,44.941,80.079,44.736,79.996,44.653z
		 M95.249,31.721c2.24,5.548,3.453,11.515,3.528,17.667h-9.016c-0.074-4.908-1.037-9.668-2.802-14.104l0,0
		c-0.253-0.636-0.524-1.264-0.812-1.886c0.075-0.278,0.217-0.582,0.549-0.48c0.504,0.154,0.174-1.111,0.174-1.111
		s-0.709-0.507-0.659-0.764c0.05-0.255-0.71-0.767-0.66-0.972s-0.64-0.628-0.59-0.833s-0.382-0.764-0.382-0.764l-0.729-0.729
		l-0.104-0.451l-0.625-0.07l-1.215-1.458l0.069-0.417l-0.347-0.07v-0.555l-0.348-0.208l-0.556-0.035l-1.111-1.25l-0.104-0.556
		h-0.556l0.085-0.873l5.875-5.876C89.422,20.543,92.9,25.902,95.249,31.721z M50.6,1.218c6.14,0.074,12.097,1.285,17.635,3.515
		l0.002-0.005c5.831,2.349,11.2,5.83,15.826,10.346l-5.402,5.403c-0.193,0.049-0.396,0.073-0.539,0.011
		c-0.354-0.153,0.173-0.521,0.173-0.521V19.55l-0.312-0.312c0,0-0.853,0.119-0.902-0.035c-0.05-0.154-0.208-0.833-0.208-0.833
		l-0.035-0.868l-0.347-0.139l-0.07-0.312l-0.555,0.069v-0.625l-0.312-0.104l-0.278-0.139l-0.069-0.625l-1.111-0.069l-0.347-0.486
		l-0.417-0.625l-1.25-0.104l-0.312-0.312l-0.486-0.104l-0.347-0.139L70.76,14.03l-0.938,0.069l-0.069,0.278
		c-0.302,0.153-1.141,0.143-1.779,0.143c-0.993-0.503-2.003-0.972-3.034-1.39l-0.44,1.121c0.837,0.339,1.656,0.718,2.467,1.116
		c-0.058,0.167-0.126,0.295-0.233,0.295c-0.252,0-0.139,0.66-0.139,0.66s0.666,0.019,0.868,0.069
		c0.201,0.05,0.173,0.556,0.173,0.556c0.758-0.051,1.074,0.994,0.973,1.25c-0.101,0.256,0.312,0.243,0.312,0.243
		s-0.002,0.802-0.104,1.007c-0.1,0.205,0.632,0.388,0.833,0.694c0.202,0.307-0.092,1.303-0.242,1.354
		c-0.152,0.051,0.396,0.23,0.347,0.486c-0.051,0.257,0.158-0.027,0.208,0.382c0.051,0.409,0.174,1.285,0.174,1.285l0.694,0.07
		c0.103-0.666,1.385-0.702,1.598-0.625c0.857,0.307,1.527,1.637,1.527,1.944s-0.556,0.347-0.556,0.347l0.024,0.34l-1.781,1.781
		c-0.18-0.108-0.361-0.17-0.465-0.107c-0.252,0.153-0.139-1.076-0.139-1.076s0.457-0.327,0.659-0.174
		C71.9,26.3,69.984,23.6,69.58,23.855c-0.403,0.256-1.334-0.233-1.284-0.694c0.05-0.46-1.806-2.014-1.806-2.014
		s-0.343-0.223-0.556-0.208c-0.071,0.005-0.113,0.027-0.139,0.104c-0.101,0.307-0.303,0.507,0,0.66
		c0.302,0.154,0.237-0.254,0.59,0.104c0.354,0.358,1.016,0.838,0.765,1.146c-0.252,0.308-0.556,0.382-0.556,0.382l0.347,0.417h0.556
		l0.104,0.868c0,0,0.611,0.302,0.764,0.66c0.102,0.241,0.109,0.417,0.075,0.574c-1.121-0.858-2.296-1.625-3.513-2.312
		c0.021-0.113,0.025-0.222,0-0.311c-0.101-0.358,0.408-0.479,0.66-0.069l0.485-0.069l0.104-0.452l-0.694-0.555h-0.556
		c0,0-0.062,0.397-0.417,0.243c-0.354-0.154-0.149-0.087-0.451-0.139c-0.267-0.045-0.21,0.5-0.159,0.772
		c-0.78-0.402-1.572-0.777-2.384-1.109c-3.427-1.402-7.113-2.172-10.916-2.246v-4.497c0.319,0.004,0.473-0.11,0.508-0.247
		c0.05-0.205,0.112-0.262,0.416-0.312c0.302-0.051-0.08-0.676-0.382-0.625c-0.224,0.038-0.429-0.031-0.542-0.172v-2.314
		c4.84,0.074,9.533,1.04,13.899,2.809l0.44-1.121c-4.505-1.825-9.346-2.819-14.34-2.893V1.218z M37.262,23.714L37.262,23.714
		c3.744-1.817,7.861-2.822,12.134-2.907v9.016c-2.833,0.084-5.521,0.755-7.947,1.893l0.554,1.058c2.295-1.067,4.8-1.667,7.394-1.747
		v8.179c-1.06,0.059-2.076,0.278-3.033,0.622h-0.045l-0.035-0.556l0.243-0.174l-0.417-0.139l-0.312,0.417l-0.069,0.452l-0.521,0.104
		v0.243h-0.347v0.321c-0.744,0.403-1.438,0.887-2.063,1.448l-5.786-5.786c1.495-1.404,3.178-2.541,4.993-3.383l-0.554-1.058
		c-1.952,0.916-3.733,2.133-5.285,3.595l-6.381-6.381C32.021,26.781,34.543,25.034,37.262,23.714z M35.312,36.163
		c-1.322,1.404-2.433,3.003-3.314,4.739c-0.227-0.006-0.442,0.036-0.506,0.209c-0.151,0.409-0.799,0.312-0.799,0.312l-0.104,0.208
		l-0.521,0.104l-0.104,0.312l-0.59,0.07l1.528-0.035c0.403-0.051-0.165,0.884-0.417,0.833l-0.695,0.035l-0.278,0.243h-0.66
		l-0.277,0.417l-0.972-0.035c0,0-0.537,0.437-0.486,0.59c0.05,0.153-0.126,0.625-0.278,0.625c-0.151,0-0.448,0.471-0.347,0.625
		c0.102,0.153-0.312,0.66-0.312,0.66l-0.069,0.521l-0.312,0.104v1.354l-0.625,0.417v0.625l-0.275,0.296h-4.091
		c0.081-4.056,0.991-7.975,2.639-11.565h0c1.346-2.936,3.187-5.654,5.484-8.046L35.312,36.163z M24.374,50.902l-0.764,0.799
		l0.104,0.833l-0.452,0.14l-0.104,0.347l-0.174,1.076l0.486,0.069c0.251-0.102,0.202,0.662,0,0.765
		c-0.203,0.102-0.755,0.316-0.452,0.521c0.303,0.206-0.798,0.134-0.798-0.174c0-0.306-0.613-0.553-0.764-0.451
		c-0.083,0.056-0.197-0.082-0.286-0.221c-0.209-1.315-0.337-2.652-0.365-4.007h3.529L24.374,50.902z M10.236,49.394H1.219
		c0.088-7.363,1.809-14.459,4.971-20.89l0,0c2.25-4.578,5.227-8.822,8.889-12.574l6.388,6.388
		c-2.972,3.062-5.455,6.598-7.324,10.483l0,0C11.719,37.838,10.325,43.459,10.236,49.394z M11.439,49.394
		c0.085-5.638,1.379-11.078,3.749-16.028l0,0c1.781-3.721,4.169-7.166,7.119-10.208l5.783,5.782
		c-2.331,2.425-4.259,5.236-5.688,8.323l0,0c-1.716,3.704-2.713,7.807-2.797,12.131H11.439z M20.944,75.346h0.201
		c0.251-0.871,1.462,0.04,1.562,0.348c0.039,0.118,0.183,0.269,0.35,0.398l-0.748,0.747C21.837,76.353,21.386,75.852,20.944,75.346z
		 M28.931,70.212c-0.411-0.429-0.805-0.868-1.188-1.317c0.075-0.325,0.276-0.666,0.276-0.666c0.655-0.41-0.174-1.076-0.174-1.076
		c0.102-0.615-0.347-1.319-0.347-1.319c-0.907-0.614-0.66-1.806-0.66-1.806v-0.799c-0.756-0.716,0.312-0.833,0.312-0.833
		c0.353-0.613-0.243-1.076-0.243-1.076l-0.069-0.66l-0.798-0.104l-0.104-2.396l-1.805-2.604c-0.354-0.104-0.104-0.729-0.104-0.729
		c0.454-0.256-0.104-0.868-0.104-0.868l-0.035-1.111l1.042-0.104l0.243-0.417h0.521l-0.07-1.354c0.091-0.239,0.229-0.34,0.368-0.374
		h0.246c0.144,0.03,0.254,0.096,0.254,0.096l0.694,0.035l0.071-0.131h2.407l0.195,1.311l-0.625,0.556
		c-0.555,0.308-0.571,1.026,0.035,1.181c0.403,0.05,0.258,1.014-0.347,0.348c-0.664,0-0.095,0.471,0.104,0.625
		c0.908,0.461,0.694-0.417,0.694-0.417l0.458-0.367c0.194,1.01,0.46,1.998,0.803,2.958h0c0.926,2.596,2.384,4.989,4.323,7.045
		L28.931,70.212z M36.157,62.985c-1.785-1.898-3.135-4.102-4.004-6.489h0c-0.387-1.065-0.667-2.171-0.857-3.299
		c0.423,0.159,0.89,0.851,0.89,0.969c0,0.154,2.014,0.035,2.014,0.035c0.555,0.358,0.764,1.285,0.764,1.285
		c0.556-0.718,1.726-0.063,0.868,0.347c0.806,0.512,0.799,0.973,0.799,0.973c0.656-0.204,0.66,0.332,0.66,0.485
		c0,0.154,0.208-0.764,0.208-0.764c-0.757-0.562,0.99-0.781,0.486,0.243l-0.278,0.451l0.486,0.417l0.07,1.181
		c1.11-0.103,0.798-1.493,0.798-1.493l0.486-0.104c0-0.461,0.382-0.208,0.382-0.208c-0.243-1.197,0.222-1.709,0.539-1.916
		c0.403,0.75,0.892,1.458,1.472,2.104L36.157,62.985z M37.014,63.844l5.783-5.784c1.761,1.58,3.953,2.514,6.301,2.707l-0.003,0.031
		c0,0-0.192,0.444,0.035,0.521c0.22,0.073,0.17,0.125,0.271,0.234v0.022l-0.132,0.264c-0.187-0.254-0.287,0.163-0.174,0.277
		c0.115,0.115-0.278,0.055-0.278,0.209c0,0.153-0.114,0.236,0,0.312s-0.022,0.128-0.173,0.242c-0.152,0.115,0.625,0.14,0.625,0.14
		s-0.154-0.312,0.035-0.312c0.041,0,0.064,0.002,0.097,0.002v0.498c-0.067-0.017-0.129-0.026-0.201-0.049v0.382l-0.417,0.035
		l0.347,0.416l0.271,0.023v0.899c-0.04,0.63-1.683,0.2-1.833,0.05l-0.035,0.902l-0.312,0.069l0.07,0.625l-0.07,0.868l0.556-0.104
		v0.348l1.354,0.069l0.271-0.29v0.985l-0.931,0.104l-0.382,0.208l-0.173-0.312h-0.382l-0.255,0.34
		c-1.195-0.173-2.366-0.444-3.495-0.835C41.288,67.078,38.986,65.696,37.014,63.844z M50.605,80.397
		c1.411-0.026,2.802-0.161,4.172-0.377l0.116,0.256l0.868,0.243l0.59,0.139l0.209,0.902l0.451,0.035l0.139,0.556
		c0.556,0.409-0.139,1.284-0.139,1.284v1.146l0.382,0.173l-0.035,0.417l0.66,0.66l0.764,0.069l1.237,1.326
		c-3.01,0.813-6.161,1.283-9.414,1.334V80.397z M70.726,82.475v-0.462c0.908-0.665,0.961-1.843,0.104-1.944
		c-0.65-0.078-0.362-0.767,0.243-0.868l0.348-0.174v-0.451l1.181-1.076V76.7l-2.535-2.118c-0.52-0.192-0.541-0.833-0.35-1.455
		c0.458-0.391,0.916-0.784,1.354-1.205l2.221,2.22c-0.101,0.381-0.455,0.593-0.655,0.44c0.078,0.087,0.278,0.312,0.348,0.451
		c0.1,0.204,0.418,0.204,0.521,0c0.067-0.138,0.062-0.385,0.081-0.597l1.034,1.033c-0.137,0.268-0.269,0.537-0.213,0.71l0.452,0.208
		l0.069,0.868c0.337,0.343,1.091,0.325,1.697,0.22l0.205,0.205C74.971,79.483,72.917,81.076,70.726,82.475z M77.676,76.817
		l-0.208-0.208c-0.031-0.555-0.076-1.298-0.076-1.298l-0.277-0.278l-0.035-1.284c0.176-0.582-0.686-1.401-0.973-1.458
		c-0.041-0.009-0.056,0.008-0.069,0.034c-0.101,0.204-0.764,0.073-0.764,0.278c0,0.203-0.41,1.204-0.208,1.562
		c0.013,0.024,0.008,0.037,0.017,0.058l-3.167-3.165c2.474-2.571,4.435-5.504,5.852-8.673h-0.001
		c1.64-3.672,2.546-7.66,2.626-11.791h8.163c-0.087,5.604-1.38,10.919-3.622,15.705h0.001
		C83.105,70.203,80.644,73.757,77.676,76.817z"></path><polygon fill="#010101" points="58.574,4.03 58.643,3.995 59.199,3.613 59.06,3.37 58.574,3.683 58.261,3.475 58.087,3.718 
		58.504,3.995 	"></polygon><polygon fill="#010101" points="60.969,4.933 60.692,4.655 60.483,4.863 60.831,5.245 60.934,5.35 61.039,5.245 61.559,4.829 
		61.351,4.585 	"></polygon><path fill="#010101" d="M59.824,5.627c-0.252,0.103-0.764,0.07-0.764,0.07h-0.903c-0.024-0.179-0.236-0.228-0.451-0.208
		s-0.427,0.106-0.451,0.208c-0.051,0.205-0.348,0.243-0.348,0.243l-1.146,0.104c-0.103,0.307-0.713,0.517-0.764,0.312
		c-0.111-0.45-0.762,0.559-0.104,0.764c0.655,0.206,1.319,0,1.319,0l0.139-0.312l2.535,0.069c0.203-0.205,0.277-0.521,0.277-0.521
		s0.616-0.207,0.868-0.104C60.285,6.354,60.077,5.525,59.824,5.627z"></path><path fill="#010101" d="M54.442,8.196V7.641l-0.208-0.208l-0.209-0.729l-0.659-0.208l-0.66,0.278l-0.694,0.451l-0.764,0.104
		L50.866,7.78l1.597,0.174l0.312,0.486l1.146,0.104l0.764,0.798c0.657,0.205,0.82-0.128,0.416-0.486L54.442,8.196z"></path><path fill="#010101" d="M73.156,13.891l0.765,0.243c0,0,0.938,1.105,0.902,0.556c-0.101-1.536-0.823-1.568-1.076-1.875
		c-0.063-0.077-0.176-0.136-0.312-0.139c-0.409-0.008-0.997,0.287-0.938,0.59C72.546,13.522,72.752,13.788,73.156,13.891z"></path><polygon fill="#010101" points="57.914,13.439 57.636,13.3 57.428,13.752 57.706,13.891 	"></polygon><path fill="#010101" d="M59.476,14.307l-0.347-0.277c0,0-0.556-0.055-0.556-0.208c0-0.119-0.27,0.356-0.486,0.486
		c0.243,0.127,0.521,0.278,0.521,0.278c0.404,0,0.66,0.332,0.66,0.486c0,0.153,0.556,0.104,0.556,0.104l0.069-0.382L59.476,14.307z"></path><polygon fill="#010101" points="56.942,14.203 56.873,14.203 56.351,14.134 56.351,14.446 56.768,14.481 57.081,15.002 
		57.324,14.828 56.976,14.272 	"></polygon><path fill="#010101" d="M57.914,14.307c0.025,0.019,0.073,0.006,0.104,0c-0.091-0.046-0.176-0.13-0.208-0.139
		C57.768,14.159,57.782,14.208,57.914,14.307z"></path><path fill="#010101" d="M45.449,16.356c0.051,0.153,0.575,0.188,0.625,0.035c0.05-0.154,0.245-0.452-0.208-0.452
		c-0.454,0-0.369-0.262-0.521-0.417c-0.076-0.076-0.35-0.113-0.625-0.104c-0.276,0.009-0.54,0.048-0.521,0.139
		c0.05,0.255,0.451,0.59,0.451,0.59S45.399,16.202,45.449,16.356z"></path><polygon fill="#010101" points="57.498,15.939 57.498,16.391 58.052,16.425 57.914,16.043 	"></polygon><path fill="#010101" d="M63.226,20.835c-0.252,0-0.725-0.316-0.625-0.521c0.102-0.205-0.868-0.382-0.868-0.382
		s-0.857-0.832-0.556-0.729c0.303,0.102,0.174-0.347,0.174-0.347s-0.612,0.085-0.764,0.035c-0.152-0.052-0.104-0.521-0.104-0.521
		s-0.352-0.057-0.521-0.035c-0.057,0.007-0.069-0.004-0.069,0.035c0,0.153,0.178,0.18,0.277,0.486
		c0.103,0.307,0.066,0.8,0.521,0.902c0.453,0.103,0.538,0.212,0.59,0.417c0.05,0.205,0.625,0.243,0.625,0.243l0.382,0.208
		l1.215,1.042v-0.417C63.503,21.251,63.478,20.835,63.226,20.835z"></path><polygon fill="#010101" points="32.325,19.203 32.568,18.995 32.255,18.682 32.047,18.925 	"></polygon><polygon fill="#010101" points="41.734,28.508 41.421,28.23 41.213,28.473 41.526,28.751 	"></polygon><path fill="#010101" d="M41.074,29.029c0.303,0-0.243-0.347-0.243-0.347s-0.473,0.023-0.556-0.139l0.035,0.486H41.074z"></path><polygon fill="#010101" points="73.503,28.578 73.538,29.063 73.85,29.029 73.816,28.543 	"></polygon><path fill="#010101" d="M77.323,32.362l0.521-0.173c0,0,0.028-0.501-0.174-0.347c-0.201,0.153-0.353-0.364-0.555-0.312
		c-0.202,0.051-0.285-0.196-0.486-0.452c-0.203-0.256-0.164-0.298-0.417-0.451c-0.126-0.077-0.208-0.111-0.277-0.104
		c-0.069,0.006-0.104,0.036-0.104,0.139c0,0.205,0.241,0.299,0.139,0.556c-0.1,0.255,0.111,0.486,0.312,0.486
		c0.202,0,0.354,0.106,0.556,0.208C77.039,32.013,77.17,32.157,77.323,32.362z"></path><path fill="#010101" d="M78.747,35.591c0,0.153,0.312-0.555,0.312-0.555c-0.253-0.205-0.452-0.694-0.452-0.694
		s-0.277-0.697-0.277-0.799c0-0.103-0.334-0.227-0.486-0.278c-0.151-0.051-0.416-0.486-0.416-0.486l-0.591,0.035
		c0.151,0.205,0.451,0.351,0.451,0.555c0,0.205-0.095,0.365,0.209,0.417c0.302,0.051,0.49-0.048,0.59,0.208
		c0.101,0.256,0.119,0.663,0.069,0.868c-0.051,0.205,0.026,0.521,0.278,0.521S78.747,35.438,78.747,35.591z"></path><polygon fill="#010101" points="72.67,33.265 72.635,32.952 72.115,33.021 72.149,33.334 	"></polygon><rect x="72.948" y="33.334" fill="#010101" width="0.312" height="0.243"></rect><path fill="#010101" d="M72.809,37.223c0,0-0.626,0.168-1.181-0.139c-0.554-0.307,0.107-0.417,0.208-0.417
		c0.103,0,0.55-0.369,0.348-0.625c-0.202-0.256,0-0.726,0-0.521c0,0.205,0.558,0.327,0.659,0.174c0.101-0.153,0.01-0.61-0.242-0.764
		s0.444-0.265,0.242-0.521c-0.201-0.257-0.312-0.556-0.312-0.556s-0.297,0.413-0.902,0.208c0,0-0.079,0.94-0.382,1.146h-0.729
		c0,0,0.162,0.263,0.312,0.417c0.152,0.154,0.493,0.456,0.14,0.66c-0.354,0.204,0.069,0.173,0.069,0.173s-0.067,1.057-0.521,0.903
		c-0.453-0.152-0.59,0.559-0.59,0.764s1.771,0.283,1.493,0c-0.152-0.153,0.208-0.486,0.208-0.486s1.207,0.104,1.458,0.104
		c0.252,0,0.465-0.057,0.312-0.312C73.248,37.175,72.809,37.223,72.809,37.223z"></path><rect x="73.538" y="35.383" fill="#010101" width="0.312" height="0.347"></rect><polygon fill="#010101" points="74.51,35.695 74.233,35.556 74.093,35.869 74.336,36.008 	"></polygon><path fill="#010101" d="M80.413,40.104c-0.252-0.051-0.139-0.798-0.139-0.798s0.229-0.972-0.174-0.972s-0.096-0.507-0.347-0.66
		c-0.253-0.154-0.108-0.872-0.209-1.076c-0.101-0.205-0.094-0.437-0.347-0.59c-0.031-0.019-0.054-0.04-0.069-0.035
		c-0.113,0.036,0.098,0.604-0.035,0.694c-0.151,0.103-0.265,0.298-0.417,0.451c-0.151,0.154,0.312,0.367,0.312,0.521
		c0,0.153,0.104,0.903,0.104,0.903s0.367,0.177,0.417,0.382c0.051,0.205-0.014,0.608,0.139,0.66c0.15,0.051,0.449,0.247,0.347,0.451
		c-0.101,0.206-0.104,0.625-0.104,0.625l0.208,0.451l0.417,0.243C80.517,41.354,80.666,40.156,80.413,40.104z"></path><polygon fill="#010101" points="66.385,37.015 66.42,37.327 66.907,37.258 66.872,36.945 	"></polygon><path fill="#010101" d="M58.886,37.882c0,0.154,0.354,0.312,0.556,0.312c0.201,0,0.729-0.417,0.729-0.417s0.271-0.71,0.069-0.66
		c-0.201,0.051-0.609,0.342-0.659,0.035C59.554,37,59.39,36.98,59.233,36.98s-0.312,0.035-0.312,0.035l-0.798,0.104l-0.07,0.347
		l0.556,0.069C58.608,37.535,58.886,37.729,58.886,37.882z"></path><rect x="55.668" y="37.254" transform="matrix(-0.2234 -0.9747 0.9747 -0.2234 31.9195 100.2591)" fill="#010101" width="0.463" height="0.32"></rect><polygon fill="#010101" points="56.56,37.57 57.67,37.535 57.67,37.223 56.56,37.258 	"></polygon><rect x="48.192" y="37.327" fill="#010101" width="0.382" height="0.312"></rect><polygon fill="#010101" points="50.727,37.674 51.074,37.744 51.143,37.431 50.796,37.362 	"></polygon><rect x="51.402" y="37.552" transform="matrix(-0.9951 -0.0992 0.0992 -0.9951 99.158 80.3497)" fill="#010101" width="0.349" height="0.314"></rect><polygon fill="#010101" points="47.706,37.674 47.359,37.64 47.29,37.952 47.671,37.987 	"></polygon><polygon fill="#010101" points="55.484,37.709 55.587,37.987 55.761,37.917 55.657,37.64 	"></polygon><polygon fill="#010101" points="67.878,37.778 67.705,38.125 67.983,38.265 68.157,37.882 	"></polygon><rect x="52.116" y="37.952" fill="#010101" width="0.416" height="0.278"></rect><polygon fill="#010101" points="47.428,38.091 47.012,37.987 46.942,38.299 47.324,38.403 	"></polygon><polygon fill="#010101" points="46.907,38.716 46.873,38.403 46.56,38.473 46.63,38.785 	"></polygon><polygon fill="#010101" points="52.567,38.438 52.567,38.785 52.879,38.785 52.844,38.403 	"></polygon><path fill="#010101" d="M68.191,38.612c-0.252,0.051-0.201,0.23,0,0.486l0.625-0.069c0,0,0.449-0.229,0.348-0.382
		c-0.052-0.077-0.222-0.104-0.417-0.104S68.317,38.586,68.191,38.612z"></path><polygon fill="#010101" points="80.864,43.785 80.899,43.403 80.621,43.368 80.551,43.75 	"></polygon><polygon fill="#010101" points="80.691,44.861 80.413,44.723 80.274,45.035 80.551,45.174 	"></polygon><polygon fill="#010101" points="46.178,47.778 45.623,47.708 45.519,47.952 45.275,47.952 45.206,48.368 45.519,48.368 
		45.553,48.681 45.345,48.889 45.275,49.132 44.859,49.236 43.956,50.104 43.887,50.521 43.644,50.902 43.331,51.667 42.29,51.701 
		42.081,52.639 42.22,53.402 43.123,53.75 43.227,53.229 43.54,53.09 43.609,52.569 43.783,52.222 44.095,51.875 44.199,51.458 
		44.686,51.146 45.31,51.042 45.553,50.729 45.658,50.104 45.692,49.653 45.9,49.34 46.525,49.097 46.525,48.125 46.213,48.125 	"></polygon><polygon fill="#010101" points="77.218,48.333 77.774,48.438 77.809,48.125 77.253,48.021 	"></polygon><polygon fill="#010101" points="76.003,48.472 75.83,48.542 75.482,48.75 75.135,48.542 74.997,48.819 75.378,49.062 
		75.448,49.132 75.552,49.062 75.83,48.889 75.865,48.993 76.177,48.889 76.073,48.646 	"></polygon><path fill="#010101" d="M54.268,53.507c0.253,0.154,0.673-0.209,0.417-0.382c-0.756-0.513-0.701-1.171-0.903-1.632
		c-0.043-0.1-0.124-0.195-0.208-0.208c-0.084-0.014-0.167,0.073-0.243,0.277v0.659C53.331,52.222,54.016,53.353,54.268,53.507z"></path><path fill="#010101" d="M27.672,55.694c0.05,0.562,0.451-0.348,0.451-0.348v-3.472l-0.938-0.104l0.069,0.348h0.243
		c0.403,0.717,0.069,2.465,0.069,2.465s-0.627,0.028-0.729-0.277c-0.1-0.308-0.341,0.679-0.139,0.833
		C26.902,55.291,27.623,55.131,27.672,55.694z"></path><path fill="#010101" d="M51.109,54.166c0.108,0.447,0.11-0.711,0.312-0.659c0.201,0.051,0.034-0.729,0.034-0.729l-0.902,0.66
		C51.006,53.489,51.056,53.963,51.109,54.166z"></path><path fill="#010101" d="M77.392,54.688c-0.076-0.23-0.286-0.33-0.521-0.312c-0.39,0.028-0.833,0.334-0.694,0.521
		c0.303,0.409,0.805,0.191,1.007,0.243C77.385,55.189,77.594,55.302,77.392,54.688z"></path><path fill="#010101" d="M29.026,55.104c-0.118,0-0.208,0.09-0.208,0.209s0.09,0.243,0.208,0.243s0.208-0.124,0.208-0.243
		S29.145,55.104,29.026,55.104z"></path><polygon fill="#010101" points="28.297,57.604 28.401,57.118 28.054,56.979 28.124,56.215 28.401,56.146 28.471,55.799 
		27.707,56.319 27.186,56.007 27.186,57.222 28.02,58.298 	"></polygon><path fill="#010101" d="M47.116,57.083l-0.451,0.035l0.069,0.729l0.278,0.243l0.555,0.174c0,0,0.784-0.22,0.833-0.833l-1.181-0.035
		L47.116,57.083z"></path><polygon fill="#010101" points="28.505,58.923 28.158,58.958 28.124,59.375 28.505,59.444 	"></polygon><path fill="#010101" d="M91.732,59.409c-0.057-0.023-0.104-0.038-0.174-0.034c-0.21,0.011-0.451,0.114-0.59,0.208l0.139,0.243
		c0.19-0.131,0.464-0.167,0.521-0.139c-0.004-0.003-0.032-0.028-0.035-0.035l0.312-0.035C91.89,59.52,91.823,59.449,91.732,59.409z"></path><path fill="#010101" d="M28.853,60.104c0-0.12-0.09-0.208-0.208-0.208s-0.208,0.087-0.208,0.208c0,0.119,0.09,0.209,0.208,0.209
		S28.853,60.223,28.853,60.104z"></path><path fill="#010101" d="M28.992,60.972c-0.118,0-0.208,0.089-0.208,0.208c0,0.12,0.09,0.209,0.208,0.209s0.243-0.089,0.243-0.209
		C29.235,61.061,29.11,60.972,28.992,60.972z"></path><path fill="#010101" d="M47.845,62.465c0.226-0.039,0.368-0.135,0.556-0.174c0.19-0.039,0.272-0.354,0.347-0.659
		c0.076-0.308-0.069-0.452-0.069-0.452s-0.185,0.308-0.486,0c-0.038-0.039-0.103-0.067-0.139-0.069
		c-0.255-0.012-0.456,0.771-0.556,0.973C47.498,62.083,47.618,62.504,47.845,62.465z"></path><polygon fill="#010101" points="27.638,61.944 28.054,61.874 28.054,61.527 27.638,61.597 	"></polygon><path fill="#010101" d="M94.996,64.201c-0.007-0.085-0.01-0.227-0.069-0.348l-0.278,0.139c0.034,0.068,0.028,0.139,0.035,0.209
		c0.008,0.089,0.019,0.212,0.104,0.277c0.055,0.041,0.127,0.05,0.209,0.035l-0.035-0.312c0.024,0.004,0.028,0.047,0.035,0.069
		C94.991,64.26,94.998,64.227,94.996,64.201z"></path><path fill="#010101" d="M94.335,64.514c0.077,0.311,0.17,0.611,0.174,0.624l0.312-0.104c-0.002-0.002-0.136-0.295-0.208-0.591
		L94.335,64.514z"></path><rect x="70.969" y="64.722" fill="#010101" width="0.347" height="0.972"></rect><polygon fill="#010101" points="60.206,65.242 60.067,64.999 59.65,65.242 59.824,65.485 	"></polygon><path fill="#010101" d="M92.913,65.693c-0.024,0.241,0.039,0.543,0.277,0.591l0.069-0.312c-0.023-0.021-0.046-0.131-0.035-0.243
		L92.913,65.693z"></path><path fill="#010101" d="M92.773,66.249c-0.091,0.007-0.238,0.105-0.347,0.174c-0.303,0.192-0.189,0.956,0,0.764
		c0.188-0.19,0.412,0.02,0.451-0.556C92.896,66.343,92.865,66.243,92.773,66.249z"></path><polygon fill="#010101" points="54.094,67.465 54.442,66.909 54.129,66.805 53.782,67.048 53.921,67.222 	"></polygon><polygon fill="#010101" points="80.274,70.381 80.76,70.416 80.794,69.999 80.308,69.93 	"></polygon><path fill="#010101" d="M79.892,71.006l-0.104,0.312c0.024,0.009,0.069,0.012,0.104,0.035l0.069,0.277
		c-0.022,0.035-0.05,0.047-0.069,0.069l0.208,0.208c0.162-0.18,0.216-0.352,0.174-0.521C80.207,71.128,79.924,71.017,79.892,71.006z
		"></path><polygon fill="#010101" points="42.602,80.866 42.29,81.109 42.151,81.248 42.29,81.353 42.637,81.631 42.811,81.353 
		42.637,81.214 42.776,81.109 	"></polygon><polygon fill="#010101" points="46.491,85.276 46.734,85.033 46.873,84.895 46.699,84.79 46.178,84.547 46.04,84.79 46.352,84.964 
		46.248,85.067 	"></polygon><polygon fill="#010101" points="20.659,87.116 21.041,87.741 21.11,88.192 21.596,88.366 21.805,88.644 22.152,88.471 
		21.909,87.776 21.249,87.221 	"></polygon></g></svg>